<svg width="512" height="384" viewBox="0 0 512 384" fill="none" xmlns="http://www.w3.org/2000/svg" fill="currentColor">
<path d="M61.4 0C27.5 0 0 27.5 0 61.4C0 62.3 -1.52737e-06 63.1 0.0999985 64H0V320C0 355.3 28.7 384 64 384H448C483.3 384 512 355.3 512 320V64H511.9C511.9 63.1 512 62.3 512 61.4C512 27.5 484.5 0 450.6 0H61.4ZM464 128.3V320C464 328.8 456.8 336 448 336H64C55.2 336 48 328.8 48 320V128.3L202.8 245.7C234.2 269.6 277.7 269.6 309.2 245.7L464 128.3ZM48 61.4C48 54 54 48 61.4 48H450.6C458 48 464 54 464 61.4C464 65.6 462 69.6 458.7 72.1L280.2 207.5C265.9 218.3 246.1 218.3 231.8 207.5L53.3 72.1C50 69.6 48 65.6 48 61.4Z" fill="currentColor"/>
</svg>
